<mxfile host="app.diagrams.net" agent="Mozilla/5.0 (Windows NT 10.0; Win64; x64) AppleWebKit/537.36 (KHTML, like Gecko) Chrome/127.0.0.0 Safari/537.36" version="24.7.7">
  <diagram name="Page-1" id="wFkpFG9Zv58ZvZYSsbDU">
    <mxGraphModel dx="1050" dy="-305" grid="0" gridSize="10" guides="1" tooltips="1" connect="1" arrows="1" fold="1" page="1" pageScale="1" pageWidth="1169" pageHeight="827" math="0" shadow="0">
      <root>
        <mxCell id="0" />
        <mxCell id="1" parent="0" />
        <mxCell id="zr_iGpOfoWRUsopIAioN-1" value="&lt;h1 style=&quot;margin-left:14.2pt;text-align:justify;text-indent:-18.0pt;&lt;br/&gt;mso-list:l0 level1 lfo1&quot;&gt;&lt;a style=&quot;text-indent: -18pt; background-color: initial; font-size: 12px;&quot; name=&quot;_Toc174614941&quot;&gt;&lt;span lang=&quot;EN-GB&quot;&gt;Tech Stack Review and Modernization&lt;/span&gt;&lt;/a&gt;&lt;/h1&gt;" style="rounded=1;whiteSpace=wrap;html=1;verticalAlign=bottom;align=center;fontStyle=1;fontColor=#0000FF;" vertex="1" parent="1">
          <mxGeometry x="345" y="889" width="495" height="196" as="geometry" />
        </mxCell>
        <mxCell id="zr_iGpOfoWRUsopIAioN-14" value="" style="shape=image;imageAspect=0;aspect=fixed;verticalLabelPosition=bottom;verticalAlign=top;image=data:image/png,iVBORw0KGgoAAAANSUhEUgAAASsAAACoCAMAAACPKThEAAABjFBMVEVgfIf///9BzVLS09X///4AAAD9//////z//f9ffYdCzFM/zlBVxWVdjb1wb2/H1tqYxcgQfn32+vwvVHvU3uSo36709PM5V3d6r6wAfH/6//kmNklZy2bf9PQaRnOissJanqDX2NcAZ2kAGjRgeJMFOWkZR3SQoLPP5+dozHNTU1ONjY12eX+1wcympqazs7PIyMigt9EhISGJ3ZUAMWIANGBZc34dWY1ajcCV4aFFYYLf399ffoNhjLcATIUXR3hZWVm+vr7g6exsf4dDxVUeWJHx//QaW4ygr7S7xs+ImqFEREQ8PDxkZGQrKyuZmZmYpat3ipJ3yX+50t+JqsmjvtVojrFIwlmQr87E2Om66sTf+OPX99l724Nbg7hzkbaO2Zik36ZBd6k6bqAASozO7srB9MFXhsFdf5YaVYOMq7xQeZ870kWm77kfSW1HXIJ6i5yEzJCw4LgAGT5CUVsNJUERHi4ALmcAKlUcO1tbboM5V240kJGXz9Xf0toAeW+yz85Jop2EvbcAESWBmT5zAAAaDElEQVR4nOVdjUMa17Ln4ObsB1GSDZKGKiZ9AUsM0QRdMYLoioqmVkg0aYKa2DQf3hpv3ns3Tb3ta27v+8ffzJxdWGBB8OOx2DEqHythf/xmzm/mzDnr83XFVFXNZDIq3fKpPsNQ1wqF1eCsGWa2KSxs3upbLRTWVEMcqKr2H2cy3Xnb//+mOu8YhlEqBM0wR3w458xh4i4PmxOFEhznI7Toryu4XXRTffaZGr5SMqQjLJIsSTLg4oSKSWhMott6KFnyGTZIfxWo0PCUDaMY1C1UZE7Gak0Gg0fhp4VXsCjY9VeCygchqBjixCcLB0GuWqzgSdsbBXBwI1RchED318FKNUrIKI5e5iSTLNeBVQMcHIw/mb4Kwavbp3COplqGkdlYLJjV4F3BShLRqQEiCY4SMQt/U1RjZiFj2JHLd3Fd0lhc1S2vOrGB2+qri8YFRcg2QIozoQROjBQGe1BfHNG6sHCpglMy6oNTYUUDgmShZXn2BTI4IyOzAJxCWmD0aYxMHZgEUgLx1pMZ48JJCJRTxTBJTjhL1igPOuaWDOyCFzKLxgUS8eQhoBJCeIooCyQc/E6JFb4WYqUwFioZF8UHhYsYydOMey0RY7xgWP9Tl0/1DAwiVcnEuoFyPnCBI5YujJI3CjD6KacK5i0MPwGdqNXrcKEDhphCyVxDbnwGZmv60OIF8MFMSYePXkT0s4dKlLgkSQE/7HVlqhoFjmLoHFCqhQyS8ELvJtT0KRurTFa4fJpYFeFcsQSGLHikYPSTMdVxKg+JTxg964co1UNwfrIU4ZETG48oXIk4IKF8kCNuxCbyQbwDCAZ7VzhkMiYSAIL64OWT2tDlx7LTg6lSCq+pP9m8H+ISpzhYKXuZi70p4lV10QQWKAhVPnByS5DgFFFJVAPhFZ9n+8FehqhaCuwSlJMFWN0+886NBkCZRyQ+6D8FVICVYjMLscICRehlOt2fTafT2U2ToUdaz2Ndq9SLWAFUEia4kUEtoJ3YAoEhQKiKFUSr4R+yaSAVfGf709ktnVX0CDwv6aWeGg4z6IAAFYegrsgfACp/wI8W8MPZWySDX3646xeGD/jpKHGrYpqW4GL8E5GK6VvZdBatX1j26RNOAwi3CjX6oq+HJHwGY5UOYzuPcHnwGSAUqIFE89soOYEhGOmxGqzAByVwPYVFIsjTJ08JIfA/8dsOW4AlsyK83ksxS0Wo4O3DKC5/gLBewSpg0ScgsHEgFbCJV28CK4n8DALVpgApbWNFt/shbKHqwnAGowDHAN9tDNo2FAsQOcAB9wgQ29O0PNLJDtrEpCpYlmf6/VojVlQ3ZuYPNj7Z7NOnVbT6RdjCihbmUhIL9VDIMoKgqxSJR/Y0i0IOF9S0/LOhoaFnWp0Pwm1xnAtWEvig/gRCOkRzAMpyQRG0MHald/uzzzkwGdUceGqwZ8AykoymiNmLfMDv4A7BcXnmRXkZrLw9uKMFHCjioXmkoRuvGEeknmYFRv3p3d1dBCr9DkfDLDliGhyR6IdDYrInwMLCOimiCGd7gWpMIhr5E2/LGHuw8gDasfwqfyCCvaYN7aRSO0NaXWgnrOD40Mt3gkkCrM2toAn25P5LeiAt9MPuiM6poAHMKnodLNEmVdLtRHfQQRIc5AKJMjUpiIkc1E0f/AgnyvpUBLxnBmObVkNGwCrCntijHnnbllmZBeKhl1Z8J3tqogcCqzkpB69rB9VnskasNBoMAaqIjHVM0o5YPoi8RZzAVf0pfGyGdJeTWaDbuWRaYgqlenpTpwqDJT45fwKRPWsPiT8L4QqOaPqsaREPG8R1d6z8gfwLrgA+y29f7SQe723LCudK5LHQFMArOMeZQL2+Ql6xLYs22f536S0u8meqssLLwfD4tN96/seluZBEWAHvVg1Pp9HwOUKwkpvwyr+zDFTi20MUyQ/yr8ooijD+I0Dog2yG8poarPwJmd235UF6dws1uqAltSRJXI7oL0lz/biyv/RTUK6UJYreLpSSCJVcsIKwpOXfgvjm5Wf+vEZK1A/wRNjyDj1JWMmpgwBJhypcmj8hsa2Kjrpvd7VJwguRYIoyDGI+/XoaDHllVxatkOVZy4Qgs3HHyj9UViIyT2EwJxQO8m8gt5YGwQHzz/IzSJQ9kF7P8oRVJS0CH7R5lX6pS+h11T4tGiR0FupHpJaWVuZCTAyFKB5C3pxkVVXR1lhklRaqGqwwDqUiTFa28xXGAJdQDG0Ddm9BcsEZKpFl1F4zATesIIBngTU4jgIUwR82N5MmjA/ki0+ml6bx3/Rc0Dn77835e2y/hneFaaDsihVIhhmkwYuqiNAOEsuAT3ko4H9Ds2LcKrwMOuUoYWW54KY1ysmhp1nUWrubKKhY6OefCCiAC7GqVpu9mUULXhn4qTbhlRZ4C4BIe44E+WCoDCxcTgS0NyS2ZUhRFJAUe5pWzSGdWD3nlO7x4G6aJNW73ac600fnlgRUS0tOrLgYC7uNTKMJWpUYk92xwvC9DY9FUgEbK9Sgb9Cj4KG3keUISHnwwQj4YMofCGi1WGF1L53VZZq9MbNCq2Nus7k1t0T+B8GKeGUpL8y2IXSWvIqVgRPMFRdowKoMUh1JVMXK/xYPS4HeHBraA30V2RtKXB5KDAUasXoH2mqTiY6kH971ZzEdBMR+XEGQwPDXtX0YByuaAet+dsXBU4jRXGARxWFl3rROX2n5ZQg2y0Mk0q2HAh9w6gLEuob6iqEWRbZRYcaWpA6stkQVWf+ZSAY/dqenV6ZXVn6Ks+RPK9OvWTI3F6y251KQL9K78xRWRCtThOYmvAKsJMSqWiTVAntMibA9SmtewSjJZlBf0QFaoJFXW+KFTWIUfL8W3je9OcJC91f+tsVCI/vB6jBILcsmNYV4DSujwGrMBSvGAKvq0IhYIUBUIU1hoEGK1dav7NiOVLKwCmG1Idv/eg6cD8L5/txzHB0f4mwhvxZkdZPcBe9NRhOtpGOwgkHvcvUhkBEWViLHkRjlzs2xui9GDhPrMK/j0VxufwUC+sr+64csOb208p4lH+aCTKptnjA9mOlkClxqjhVWqCheJZy1PG2QsPK3gRU63abVQfk0/WM8l4tG49F98sGl/eG/zU0vPYSfoBlqmysVVsh4DSukldyCV34cB2UWcWAFt15gRicKMS2xQlZhhkMTX2xrPwqkisaBWvH9/TlQVj+RagBFOhdqwMr0msZS1WJ9514dr/wBwmqnUnLBEY+wSgWO5VWahr20KXpy9d+i6IHxeC46NaJvzs3tL63sWzlOqL4nR2ZrHvNCpJVS299fxyt/YBvLKakKFogVydPHglfysVjtJq3eeDMeA2bF47HJUY4pTg4GxBX8tw+aoW65piSFDNVDy1jhc1traEerywe1wCCW4D9UClSQxlwuK1xeThxQrQ9V5syBnyrKWkUyAFa8kuMI4Q6vrY8eTk7GJm9jJIcHnlA9ZlrkzrVY4XzZWrfxqTHVWK2HqjF3foWTUtuamJ33IyQplBHbz+huCk8RtehBIK9pDk911GR2RxAb6j3Vg6urJih9WZIhOxoG4U4hay7U+C6Yt2bAVEOXGWuhGYApB0PL2Dbz+IBmt+CRA/8LrKl80CijSeH6E5yboHvV6R8HVq/jkyF6YQkbRK1lq/iLjcbihNV0Q2zHe7qnsPIVcV6mhWZAr8pj5YVvP7MYcxB4HFEo2tM04U4EJxSxwJAnoBqw+nEfRr5D3cr3RN0KK6SAWnIyHo/vi7ponQ+Szxa7DY9lNMRgr2NLrDBGaTDUQcR6kxCtMvlUmUGofpsXLR+JZYkpZXhOy+drhgShr7KgE6K5w+jfda6LVdCMCX5FWDIGUMGzblhhg41IdDxgNB6X9GOxwoL7NpMiilJ+sZdKvRrcjsiQaS/viPwvMFRGd1kul5fLM1rAMSOdkNjz7GtUnnFUoNdMsYJVAIZF0uQUjIlRlFvx6ZwpyQ1YKXqp2ygJU61UsKHVuE4zoBc+LksKVxSx1oQrAJY8o4mCFmotxfKuQb+jgAXjoKwfAhKgpgCreG5qVKdl0tby39DtSfupaC72kTUsmcaan2jn7rrKIqzqRx8XrOi8d8oKzR3Q4jgFPvI96pyh/qJE2VKz0ttKc5vfmnd+Hp9C4pCrRWOHoyYXHw4PfTyCR1CaIlpT73VWDxVZyBtY0USX2/tzwypw+UOZmjNoGGPS8tABdRZp/jyA8mYZO0YiODehVQtfgBVIhNFYVICCuMSmrr//ODI6evtwMkoCnp6burZKzaNub0Z8pt1GCgNWwe3tuWCF53751YvtMtj2Mk4rvEWJgJ0O2CHzLLGTSqUSCWcnoHaQAABgvDRvf45REohxKZfLxcByKN4FfKDkR3FixG0pPrPmVb2AlRF0W5HrihWVX2Cky+e1PZTxkZRmN49qogMLZehBoNrUcJDAeS3k4ur1WNTCCr+JZOIH3P38cZiJPglXJwx6IydUUYi6vEFXrAKivwqD1LNtCO98+zIVQjVxpNVc6+xg8/8nYqCQlEoeTcUr1EINgffgV3TqNkRMJcK5K6nAwl7BquS64MYFK63SLkTZso5D/l4+oIlaaEWvi6YG9E0IW4kyzjSDSGIwfuoff8Xxzory4ICHWHCIXccMS8ZJ7GYbh/A1j2DlGq6axCsHxZ69lUA/lBOO6FTzPCG7A6MjaXM0iSQCsEkMiIJhseiI7voGagxVQ/erDWqli6hDrAJIme2ZoWpCUxvakFuJsqxw0bPFSFdKfPUwFj+0cAJSTX7UGzVVo2H+3H1mWfM3HWMFrJl5k8Lxz1/fRlThFegxhVd1gMht+Gg0hiMfBq3J27gkp43liaY3sHJVV23wSsPM74Bat12xCgR2lq2tnCpYYb8Vg7A1GSPd8BsEqkqTXwuDl1j0RMBaq586aROrAFGnoeuxyjuASuFi1yvxknZLn8LM97HJycMRpJzkWBPXAitPBHdIBl2xko7zQcqnRWOaK68el7F7htSCbL+kyJYRGzMZ1KkHUmLHLzoHgVrwBFZ97vvowAkMHrRY6+av+VVvWv5x2Z7w5w6pi1tgVXq8JGbtH9ZGwAp6YDoHQ7vrW4W85L+GTmyXd8q4Xuns9r/wxNRXJtzkY4WQfIqFzlyMgGcDFEfl3m2gwDJ6E17xiMTkiNtT7ZiiOFecntK4RzptS+6hHQdz3HnpBGcmApIcObutQrB30gO1UWONya77L8g0P8Wljk0WxvHv3asGJ8EKREO3ofL5CsxdC+LiJNsF7eZ9BVfZugHLHXuxctKXzqmaNkzB3Q2ab5kBqsMDq5lAXrXx2YtqCa1YVtyGNgXNjuRwhERN7O0bxkbe4n3Ac4Xu8wp3QTkeK7HtnLX9XJNDbF6JmZgOA5XYG7IVVh7oSTbqO55ccZDFQngWXh0ZKYy4maMRYfhK5zbMIkqLgQCw8sBMfbtYoXzgI7HYr//9H+72D9Nq9Ry+8eVqx/a7Liut41WvYIWHQFD5OBn99PWRmHVpsKNf+sSx3365+TzYoV35ZlhSWihXwqo3fBAOUWS+Onn06UhMLcSjU1WzCsKHn8YFVjdu9t261deJ3bryjSm12jrKI7yq70xxxwpH9ffRXw6j0UNqYLw2XLFvD2nqKh5/eDdsYdUZUoTVcMvtXbnshY0I2sMKFZB+ferrHJboovg9NSns82dscsHJ92jU3LjgWLXlgwpkLPq1X4+ih9SnYU8sWDPG9Auw4uvniJUXfLAtrLB9Qf/n1789bGls4Byx6usVrDitCh8Lo4iyC8KOje5pygG+zxOrnuEV1nr120fXf7t2/bfrzez2uWK16gGsVll9e5gbVlzm+rVPydVkU1sd+fu5YYV1Bi9gVWD1y4XcP1jA6utwq0NC188VKw/kzr5iO7xCJ0CsmklrTG/OGati97FS15h07FxmFSvWrL53vljBU92v9WGXTDsFFAurZqU7aus4V6w8UEOmnT46xgqXLdd80U6Y54qVF+YmVCPcCVZoLj7IJOU8sYKnPDHnhQsHj59ucWLlejLnjZXphQ1TsIh8fHA/Fqtz9UGJ5JUHsGrS+9EhVufKK8Cq4IWOURQNZ+CD580rTywiVNV2LgzU7XjFvRDafQ2bDZwMq9PzqkUkkLzRA6n63JcCdIpVDa/6grf+QAgav2+5fSNWeqvR2BMzEz4Ey71nu0OsHLy6evMP98mJIP1zM+BVq2ln5o22PrBS0+UKHWClOLEKuWP1xy345/rMcVhxr2yBb5juC4Y6wsrJq9+/6tRuQrxqVe0wvbKrTDsBq6N4dePqjatXbzTa1f+5iT9dnrh6dbhl9hD0ClZYwjo1VqwBq5o5eHzoxr//+PYLYXW14ekbrXlV9MAoaH1aTOyw3rrg3S6vholThIj1fcPC46s/nnwRd27Y3Kt8DyuyW5+MhLu6K7zbMAlzrOE9FVZVXvGvvljYOFxMEO2mcEALoMoRcPMKd2+TkZm106hHrLLSq4UTdMArxodd7Nt/2eb27DBA4gqWTPv2eWWDBtwsM6OfGqsqr3Detb75T5bCICP+IEUqavb1myJxxR0rzrxR5yNTM7QDJJPPjFd41txZOcUVOHofaStQWAq2ncK3VDmAcnd3kUflac+4YCZDtYZj+vY7iVdcqm8HlfQrVypa6sq/uByJ8Np+UQGoK1aKN2oMaCpFd/2YC+d1wCvOqytR7b/+6ktFRny5+s2V+iU4iC5z9UF8zGN77+DlOHgr9d4Br9z++vcvDuX55c/21ldaKHqhq7bGSpyxU2GltMTqqz9vVu3Pf7fsz67HyjO5oGXNFj23j1VLXokFAtUllwrrYEGFR/ZmqBjuG93SK07Fq4GJsYmxhY2Fe+Pj98Y38E5fc1RrTcFJVE9BhRU/s+UUxal4tb6wvnB3/O74xtjGxsbAAnxN3GkTK9x3x1tQ+XDnaH4qrFrxan0CmLUwtnBvA77uTuDXfNtYeUaz26bSnKoI7q6R5DS8mn009mhs/u783YH1gYGBO2P49d3scRhZ66BpPaqnmIVvZu2YxroT8So8vrDw6JKLPVpYGG/ZzoUro6k9xotY2TuGua8UPyGvZu/cmf/eDasH83futMSK0dVfQnRFIa9hpapr3F70dwKsmsWriYm+eaTRetUGkGh3+iYmWkJFs5a4D6u3FIN11TMjSJeHOmNezSOv7rKJ6kTEhD6GvJo/hldcVkTzsfewwku+iK0mzhIr5NX6pUsTA+hzwuYfjI23wyvMKxczPs9hhaZiVthsz6CT+uDsd4/uPECs7lUfG0esHtx59F0rXnFxyUYP4iSscRP39rFqxqvZ2dn1OqzuIVbz8EQLqJBVzOz+jlfNzVhjTdT7WfLqXju8wrJN99tpWxim0MrZatHZW814dau1HFU8lzTXGrw3/YRYNePVg+9RXjViden77x+0HgdNrwmrGsP999fcl7OfmFfh2bA7r8Kt45VoaPcusfCduex6j1BU15i4066pvrr0oCmvLjWDniLmqucSwTpTRScI53W5oWTxqlklgnaBbpY7D7hhtd7klcR2WIpn9iFvanRlxEW9HinawVHWr3365+0WZq+1rLFZkf258AqsGa/wGgtemRJsahkVbU1chrP23Uck/fonXDUfjbnY0VRsasoNKxYON+NVuGn0g9xhzeu08tEVG3E79+rejRVi8QjbOK5I3oJXY+GKbRzDK0WxNmz3uuFATesvaz9pwCo8+o9RsOJoMxtx5ZWOvFoYc9ZjNgSvmm9X67VZruZG7ba1eSHGdnPy0xS4m8MHP3+edDqi+zhIdidcY49a8UpifT0DFZq4DJNcmTfHdYPDsU+HudwhXrVM2LWQeTtmbUCQm4vmmsQrfYBqew7D+83ilSJ5p+GxHYOYtWgyx4QnrlyVhyc/HR1ae4rj9hUxUGLD1h28nAtg1TjjMOtWE7WtASxas2kuqp6/En3FVKplmU4BL0GaqEePvo7OAbHEFhbxWJJJpn1ZBIBw7mV4zI1XbMANJ1deYRcIQtU7WAmdhcxyXA5Nkfnt6C/ReJVY0Vwy+LByJ5qbDI01yVrm783fG4CvMbSBe+v3BsYfuR4ItBqmazr3FlYCrEpGg6uzg5NHvxzmDit7OsVjk/ateC4Xe1/YcIeKrU+sL1TmBwcmBhaazA8qErDK58VrhR9rAFZFOshcVngy9ul/P00hOLGYDVhM3I4dXb97z+38iVdtzjvDWOvzdg7Y1NRF3Fxd1P4kcTGSkdHi2F1XG2sx2zc+Oz67cGsCGyAnbk3MLsDXeONRksRCiz1JKp99hROp430KT2aKvfl/T2LlE7uCtLPE97SGYoHjTERvsgoNFHyxyWWjzthkphe9ciGqkxkm0iWTuW6/eqamMLMkihzdPuVTmErJ4fkbzkP0LlDVN45+iGZtS3umGIkLxoH/UZdAD8Nlm6GGRFcItqq3sQFUm0bXa8T92kKLPVGuatMoxMuSY9u5UxutlaBysQd20D5TMxaDjnM8O5NYcLGnqlXtmGqsmVb/2NkYXliIMXMNi1Ve7lvo2CjmGgUdF3GdEVhYqtILoqx3oYhFJ5QxEK0zi1dMTxrGBRj56o1OCLWWL0lBni6m1NEVXWjzNbpeFV3ZGUJ6YdHwxlVQz8WQBMAtvPgQdYh0MiqK7VoZs/pAzcKF5JTDKAsxjCItzVSYvStiW4hJ4op6YhtEW3t2+4TO31RjMSkuWiiztrEi6YnHm0l0Ps+1Yp+PZdQMkGstqLPOsmq69GBwzaDe4l4uv7RjlXxNSAhjbdVsM14R/7i5KoCyYMpcZLDU+qqJYZQKQZfacVWDVW7pwUIJgRIvIMbV7pxF1wxDvVFc6DP1KsN4zQQ/181gsmgYFyzpO6ERXoultUIy2DdrhsMIWzgcNmf7gsnCWmnRMOgK6V2PT/8HAYg00G1l5+QAAAAASUVORK5CYII=;" vertex="1" parent="1">
          <mxGeometry x="374" y="921" width="204.67" height="115" as="geometry" />
        </mxCell>
        <mxCell id="zr_iGpOfoWRUsopIAioN-15" value="" style="shape=image;imageAspect=0;aspect=fixed;verticalLabelPosition=bottom;verticalAlign=top;image=data:image/jpeg,/9j/4AAQSkZJRgABAQAAAQABAAD/2wCEAAkGBxITEhAPEBAWFRAVEBIWEBUPEBcQEBUSFRIWFxgXFhUYHiggGBooGxUXITEiJykrLi4uGB8zODMtNygtLisBCgoKDg0OGxAQGTUlHiUtLi0vMC0tLy0tLS8tLTUtKy0tLSstLS8tLS0tLS0tLS0tLS0tLS0tLS0tKy0tLS0tLf/AABEIAMcA/QMBEQACEQEDEQH/xAAbAAABBQEBAAAAAAAAAAAAAAAAAQMEBQYCB//EAEUQAAIBAgMDCAcFBQYHAQAAAAECAAMRBAUhEjFBBiIyUWFxgZETM3JzobGyI1LBwtEUNEJiswckU5Ki4WN0gpTD0vAX/8QAGgEBAAMBAQEAAAAAAAAAAAAAAAEEBQMCBv/EADQRAQACAQICBwcDBQEBAQAAAAABAgMEESExBRIyM0FRcRNhgZGhscEU0fAjNEJS8eEiFf/aAAwDAQACEQMRAD8A9xgEAgEAgEAgEAgEAgEAgJeAhaAm1A6BgLAIBAIBAIBAIBAICXgIWgG1AW8BYBAIBAIBAIBAIBAIBAS8DlngMVMQBAh1cwA4wCnijvtpAnUal4D4gLAIBAIBAIBAQmBwzwGKuJAgQ6mYDrgPpUYAMwsCbC+h8oEuk94DogEAgEAgEAgEAgEBCYHDVIEarigOMCuxGY8BqeAGpgMbFRtWOyO3VvKB0qouo1PW2p/2gN1sTp/91wLTL3uBAslgLAIBAIBAQmA21UQItbFgcYFfVx5J2VBJ6lFzAcpZbVfWo2wOoat+g+MCywuBp0+iuv3jq3nAYzl7IvvB8jA6wbaCBNgLAIBAIBAIBA5LQG3qgQIlbGAcYFdVx5Y2QEns/wDtIDfoGOtRrdi6nzgdB1TRRb4k+O+Bw1UmTsOLQg3X6J8PnAt8r3CQlarA6gEBLwELQGnrAQIdfGgcYEH9peobU1Ld24d53CBJo5OTrVf/AKU3eLQLOhh1QWRQB2D5njAdgECsz/1ae9X6Wgd4DcIE8QFgEAgEBLwELQGalcCBCxGPA4wIDYp36AuOs6L5wOfQDfUba7BovnvPwgKa9hZRYdmggNlid5k7IJJBAIDeI6J8PmJAt8r3CQlarAW8DlngM1MQBAgYjMAOMCOnpavQWy/ebRf9/CBNw+TqNahLnq3L5cYFkigCwAA4ACwgLAIBAIFXyg9WnvV+loDmA3CBPEBYBAQmByzwI9XEgQIGJzEDjAiF6j8NlettPIb4HPo0G/nN/Nu/ywFesT2Sdg3CBJBAICEwOmUixKkAmwJFtbE7jrwkBrEdE+HzEC2yw6CQlZ+kgMVcUBAr8RmI3Df2QOaeErVNTzF626X+X9bQLDDZXTTUjabrfXyG4QJ0AgEAgEAgECr5QerT3q/S0BzAbhAniAsDhmgRa2KAgVtfMeA1PADUwI7K7asdkebeXCA1XKKrFW2Tb1jEXHbc6CEb7K+pmCU9oAs7HViWuN33jw7tJyvmrXg0dN0bkzVi8ztWfn8lTic9JIQNYk2tSF/NvnrOFst7e5q4tDpsU8utPv4/TkvsrP2SeP1GWcPYhjdIREam0R7vtCVOqkVAT0QT7Iv523QJFPAOd9l7zc+Q/WQnZJp5av8AESf9I+Gvxg2SqVFV6Kgdw18TxhKJm3RT2/yNCJVOKPNPh8xCErB4oACQk4+OLHZQFj1KLmA9Ryuo+tRtkdS6t57h8YFnhcFTp9Fdes6t5mBIgEAgEBLwC8BYBAIFXyg9WnvV+loDmA3CBPEBGMCBjK9oFOagY6sbWBGzuIN/4vD4iea3i3JNomtprMcY/n4dK9tEAHzPeZ72QoeU+bvQCbO9tq52dtha24buMiUc2TqYqtVYbVz7TFm3fwqN0HCGgr5I1UgstgABzm2RuHAandKs4rzadm9h1unx4KRad5iOULbB8m+sHU3NgKa3PadTPcaePGXHJ0tfljrt68f59V5hsp2QF2gAOC6/E/pO8RERtDLyXtktNrTxlLTBUx/Df2ud8N3wkvJ70g3QFVoHUAgQc26Ke3+RoRKnx4JpsBv0t5iEHsrywEBqr6dSmw8TvkJXVOuF+zoUS1hqQPR072055HOPdeTt5vE2nfaITKbEC9QqD2HmjxMej3G5s4xTogLn+UaeLbo2l6msxzH2pP8ACi6/zN+gjg5//R6klhYkk9Z7pD07gckwOC8BQ0DoGAsBYFXyg9WnvV+loDmA3CBPEDl4FFmr/OBFnpBUUnQAnuF4HGIyJazKagHMB0L/AHusL7PWJBsn4TJ6VMWAA7FAQHy1+MJ2hPp0VXoqB2ga+cJM4jFqu8wGKWYqxsDAg5/n9HDpt1qqU1JsDUcICeoX3mBja39pOH1KGpUA1PoaLuNP5rBfjPFslK85crZsdeFrR825yTMBVRKi7mVWF99mAIv5z26rcQCBBzbop7f5GhEqnE9E+HzEShMy5k0NixBsS3RXr1Og8JPHZ047JzYxjoDb3a7ZGnFjzRG0ObtKikj0ltDbnP6RtQBqBoN089aI5SRfbxSkragBbLbfcC3ZaRub7ngZKXUDljAj1asCOa8BynVgSEaA4DAWBWcoPVp71fpaA5gNwgTxA5qQM/m/4j5wHKVHTa5trbyCx8twkiE+Y0VOzVxBO/TaFNP8q2hKU2Y0KVOo6DmqLvsIeAJ1PHQGBi//ANJQuLUavorgF2plFAJA2jt25ovckXnH2+PfbrcXD9Th60V60bz8W3p5zSKX2wTYnm87cD1d07O7y7lHn1evWqrRrtSooQvNpr6RmtdjdwbDnAbuBlHU6ucVurWGZrNfOG/UrG/BG5O1aiYygTXqvtCoGFSqSp5lxzBZR5TzpNRfLeYt5POh1eTNkmL8tlpy/qbVXCA62aqdfdzpru6+Lr0nP9D4wzmL9XU9hvpMx69qHz1O1D0zkE98Nh/c0/oE+kfYtgICwIObdFPb/I0IlVYjonw+YhBj0wHmdSpfj/NoPAdUjefBO9vM7h8YrMNolvaOnkNJGzz1Y8Wjwzi2gA7haS9bG6uJ1gP0Kt4EgGA1VeBR5zmaUadStUa1NEZnNibKouTYamBi8V/aLQUF1oYllGrN6EUwB1/aMp+E5e2xzO0W4uMajFM9WLRu2lDGDU33C542Av8AofKdXZaUasCSrQHAYFbn/q096v0tAcwG4QJ4gc1IGfzf8R84GZ5b5o1OktJGtUqaA7V9lbXLBd3DS99SJy1GX2VJsr6rP7HFN/Hw9Xm64XDlyoCmsNSwa+IB69u+0DqNb8Zjzmz9uZn8fswZ1GpjbJNp2+n7NVhc1qVMBiqVQu700qAsagpqwNO6kgb9OzftTYwZfa0iz6DS5/bY4v8AP1UFSmGUqdzKQe4i0wInad4fKVmYmJhveT2cD9gFRrBlpkVCNOcl1f4qZ9HW3WrEx4vsKWi9YtHjxYDCkldtuk5ao194aoxcjw2reEwM9+vkmz5bVZPaZrW96ZlX73he+p9Et9H9ufRd6J723p+Vjy49dhe+r/TlnXd18V7pPuPjCixfq6nsP9JmRXtQ+ep2oelcgP3ah7mn9An0j7FshAWBBzbop7f5GhEqnFnmN4fMQhheVGZsWFBGKjZvUKkhrEkBQRqL2Oo107ZU1WaccbV5ypa3UzirEV5yzuFempZ6FQLUXVmovZrj79ukNNzXlKmXNW8daZ4+bPx59RTJXrTPGY5/+vZcJjaaJYE9egZr3mxs3Zsw3KjlRiUq1BQZFpogNqlFmqFrEnUuABu4Stlz9TJFNuapm1fs8laRHPb77N3l2NYjRevQt22+Ws7z7lxZmrUINtgG2lyT5xG+/FPBExbvxqAdir+M9bwnePJh+W9a2Dxalyb4dxr2An8fhPNuTxblLD576iv7tvlMTTx/Ur6vm9J31PWHpeArLqANDodeFz+p85txGz6VocLiJIsaVWBJRoEDPvVp71fpaA7gNwgTxA5qQM/m/wCIged8vMQf2i3+Hh7gX0uxN+7oCZ2v3ma1hkdKb2mlI8f/ACIcZtklOlgqNVSnpE2GJFbbYhm55t1nacS1nxxOGa+UfZe1OKs6e1fCI4fDkpQ9hiF5vPwr22wTrTv0bcef8BKvR08LR6KXRFuFq++Pr/wzXxAQ0gR032B2HYZh9NvGZ1a9aJnyjdj0pNomfKN/rEfk2+MZVq4XbOzVdbLYW2KgIqa/9NQ+M0sGbbTTPlw/b7tnTajbRzPjXeP2+5Wxf260Bb1LVG6+mqr82+EzvZ/0+v79voyIxf0pye/b6TM/hYZV+94XvqfRLnR/bn0X+ie9t6flZcuPXYXvq/05Z13dfFe6T7j4wosX6up7D/SZkV7UPnqdqHpXID92oe5p/QJ9I+xbIQFgQc26Ke3+RoRKmzA/Zv3fiIQ8txQNWu6/frbJ9lRZh4hT5zPtHX1O0+DMvX2ms2nlH4jf7tY/JMVaagNsOBzGVBpcAEEC11I4X6jvAl29IvG0tK9K3jaY9/yaHGtsL038W0+HCS6b+55rygxG0+Kb+T/xmUNT39Ph92PrP7nH8Pu3mS5he2s0Gs09PFaQK3McZoYHn/LLGXw+IHXSf5SJ5ItyUGen+71/dv8AKYun72vrD5vSd9T1hr8vxk230rS4DFboF5ha0CypNAjZ4fs096v0tAewG4QJ4gc1IGfzf8RA8z5cD+81v+Wp/wDkmdq+/p8PuyNd/c4p9Pu03Kra/YKl/SW9CbbVOmE6J4rrvl7L2J9Jambu7ek/ZgapN6ltr91xN9hQ3+Hvvwmf0bzt8Pyyeh+d/h+UPOKZK0tkc5am0velN2A+E46KvWtavnEq3R1Ove1fOsx9kk0FZ6dbiqsF6rPbXyHxMrdeYrNf5wU4yWrSaee30V+FUnFGrwanWVfZp1KS+Vwx8Zdy06ulr67/ADiWjnx9TRUjznf5xP4XuVfveF76n0R0f259Donvben5WXLj12F76v8ATlnXd18V7pPuPjCixfq6nsP9JmRXtQ+ep2oelcgP3ah7mn9An0j7FshAWBBzbop7f5GhEqXM/VVO78RCHluFNsQv/MVeF/8AE4Sjj/uZ/nkz8X95b0/Z6pgWYoOfbTcadju75eaDEcra1Y4hk9O6qKSG1Oyrcl7nUE30Eo6rUXx2iK+TM1uqyYrxWs+DOfsws6szNt32izXbUW0PDSUL5rXtFp5wzcmove8Xtzg7QpuvRxFYd1Uidf1mXz+jv/8AoZ/P6N1yYes2FplqxYn0g2nXaawqOoueO4TUxzM1iZ8m7ivFqVmY47QxuarUetiNvE19KzqAmIqU0AFgAFVrCUdRqMlLzWJZer1mXHlmtJ4cPBWVsrVtGqVmB3h8TVYEdRBbWcP1eXzVf1+fz+iTXpB1ZGF1YEMN2h7pXraazvCrS00mLRzhHTKk+/V/7mr/AO0sfq8vn9Fr9fn/ANvpB1csT79b/uq3/vH6vL5/SEfr8/8At9Ib/wDs0qE4JNpma1bEqC7F22VxFQAXOp0AmrSZmsTPk3sVptSJnyhusOZ7ezOd+rT3q/S0CRgNwgTxA5qQM/m/4iB5/wAvcL9sjG+zUolb2tqvC/E2Y+Uz+kKztW0eH8/DJ6VrO1Lx4T/PsqMZnnpaFLC7CioCvpdlHXZCWuSdxB2QB137Dbpm1FJwzMTzh21Grxzp5tE8Zjbb1/Y1h6RZcY4UHYwrD1mwQWDM2nHRVnjo6u1Zt5z9v+uXRNNqWt5z9v8ApMFS2q2HXrdv6Lyv0f3k+n7KvRXfT6fmEHFVhQL4djaqjMlJDoXsT6MLffcbPnIzaa85p2jhM8/VGo0eSdRO0cJnn4cf2TMwy/0FTC0+rC1QT1kNQ1lrXxtiiPf+JXelI2wREecfaTuVfveF76n0Th0f259FXonvben5WXLj12F76v8ATlnXd18V7pPuPjCixfQqew30mZFe1D56nah6LyBrD9moe5p/QJ9I+xbJawgdioIEPNjzU9v8jQiVPjxem47PxEIeW5lSKVqlhcq4dR1gi5HjzhM7Lb2eeLTy/kMrPb2Oqi88p/4uTyttS2cPf0gGpamwWmBqb7Q6XAL233CWr56122nfddyarHWI2neZXmc5RQxH2jIGfZttBiGsCTa4I6z5zrNInnDvNK25xuwWOwvov2lFLABSVu7MQTT4EkkTO1FaxmrER5fdk6ulY1FIiOHD7tBlfJRG3vWHdXc/MmXJ0+Kf8WhOlwz/AIw3GVZWtGklJLlVBsXO0xuSSSeJuTOsRERtDvEREbQymd8kmNSpVTFVE23LFAlJ0BO+20t/jOV9PjvO9o4uGTSYsk9a0cfWWSznA4igj1BiAwRSxD0AL24XVhbynKdHi2cLdH4dvH5jMqxp0qtRQLqjEX3XA4zMxVi94rPixsNIvkrWfGXdDB4w7jQPeKi/rNH9DTzlrT0Zj/2lOo5PmB3UsOe7EOvzpzzOgj/Z5nouvhb6NzyEyurQwyUqwUVPSVnYI22o9JWdwAbC+jCXax1YiGlSvVrFfJsaAnp6M536tPer9LQH8BuECeIHNSBn83/EfOBR8rMo9PRFrLUWzU2KE2YC28bwQSCOomeMuOMlZrLnlxVy0mlvF5rVrMq1NpOehsVDAgtYEWYcNRra/ZMW+nmuSMczzfOZNJamaMUzz8fVp8NgFp4DEBmBqvTqMS1FgNoobgMOFrAX4ATbx0ilYrHg+kw464qRSOUKXk9sVcThNlg49ITzWBGlJzwmXoazGWYmPD9mJ0ZW1c0xaNuH5h6g/JxDzg9QH27jyM12+8+5bYUpi6ALlh6DEbx/xKJlHpDu49fxLM6V7mPX8SgZT+94XvqfRK/R/bn0VOie9t6flZcuPXYXvq/05Z13dfFe6T7j4wo663VgN5VgO8iY9Z2mHz1Z2tEu8h5UVMPTSnUwtbmooJRVqDQAfwtf4TdjVYp/yfT11uC3K8fZf0/7R6AttmonvKFRfjs2nWMlJ5S7Vy0tytHzXeU8u8HUZVXFUtpiAoNQKxJNgADvM9ujT42ttKnt/kaEShYnoN4fOEMjylyR3K1aVtsCxU6bS9V+B6vEcbivnwxljbxV9Tp4zV28Y5KPC5Viap9GMOyX0ZqzIFUcbbLEsewadolPHo7xaJt4M/D0fki8TaeES9TTCXS5Wx175ptl5fyupha+JS42jSU2uL2KEXt4TP1MT7ek+n3ZWsif1NJ9Pu9HyrA24TQaq9XD6QK/H4S4MDz/AJb4O2GxRtuo1D/pMieSJ5Mnnq/3ev7t/lMXT97X1h83pO+p6w3OAwXZNt9K0WCwkC4w9GBYUkgRM8H2ae9X6WgPYDcIE8QOakDP5v8AiPnAcTDMVDKAbjgxVv04SUvMuW+B2K96isErJYmoAOeLggsuhJUi3szN12O28ZK+H8hkdJ4rRNc1fD6eTvkPiKqYn0TVKtak9F7oQrbOy6WIAAJ0YjjOuk1Fsu/W8NnbQ6u+frRaI4bcm/w3JmglYVxST0gvZwi7YB32a15daK+AgYTl7ycq13pVqDqrotRSKiF1ZXKHeGBB5g69845sMZa9WVfUaeuenVtPvZzk9yfxYxVJ61OmKaB+dTqsxJK2HNZRbzM5afS+xtM77uGl0XsLzaLb7xtySP7RqBRsNVKsUV3DFEZ9m9M2J2QbDtk6vHa+PasPWvxXyYurSN53ZSjmVFzZayE9W2A3+U6zHthyV51l8/fT5adqs/JKnNxLeBAzVBam1hcYjD2Nhf16cZb0cz7WPiv9HWn28Rv5/Z67TqXRPb/K0230cna3RPh8xCDzYZWS7KSNOiCTv32GsRHFMlwmWpoUe3VuI4cDr1RPvRstfQ1QNyMNetG7OsRwOKmzTK6NQr6fDK/G9SktRVIPWR1i4jZ6iN4WuCKaAML+UieCJ4TtKyCwI+JpXgYvlzgGbCYtUQs5w9XZVAWZjsnQAak9kieSJ5PLM5zCl6KshYo5RgFqo1FyeoK4BMysWDJXJWZjxYWDS5aZazavjD2HCYSazeXGGoQJ9OnAfVYFfn3q096v0tAdwG4QJ4gcvApM0p/OBFRiNQSD2G09IMZpSWuhp1kWohFiHUajt4fCQndV5HyYwlGoagVlYiwvUcqBcEhecQo0HVunmKVryh5rSlezER8GtpUGBUpWLIN4ez3Gv8fXr8J6e0uBxUpg74DS4UDhAZxmCDjUQM3mXJGjV9ZRR/bQN8xAzuK/s5oammr0j/wKr0vgDb4TxbHW3OHO2Kl+1WJ+Crr8icQnqsY/dXppVHmAp+M4W0eGfBWv0fgt/jt6IdTkrmDmmjegZBWosWUvTcBKiseaQQd3XPOPR1x3i1ZeMPR9MWSL1mXp5o7KJ7f5Wlxfktfonw+YhC3yxdBISsjRB3gH/eByMNa2yxAHAnaG+/HXjI2eer5SaqBx/AG9ltn4GOJvaPA4cOrCzICDwI1/2MTG6ZiJjaXX7MLEKzLfiDu7rxsjq+RmpTqgaMra/wAQ2dPDjI4o2tCFiUbm3TeF2iNwJ3+EndO8oBoK99pdAAx2wLWOoPVbQ+UmExPDdOw9DqhKfSpwJCrA6AgVuf8Aq096v0tAcwG4QJ4gBECDi6FxApq9FlOmo7f1jcMrVG46HtkoOWgUdHO2RypbndvMJHYw39U07aXHPLhLLprMlefGF1heUHBv9Qt/qGnmJWvpMleXFbprcdufBa0cyRuNu3evmPxlaYmOErUTE8YS0YEXBBHWDcSElgIVgcNREBl8IDwgNjBDqgM5lTsqe3+RoRKsx4+ze2+w3d4hDvK8wqIBtDbXybz4yEtHg8xp1NA1m+63Nb/fwgTICWgEBYCGA06QI9TDKd6g94v1/qfOAycsTeLqbEXU2IuG1Hbzj8JO7zFYg9TwzqdKhK33NqdWJOpvffYDQC0TKTj1Kiqn2e22zz9hgpvbhtWBue0SEu3xIVQzBhzS1tkkiwuQSNAfGTEbzsIGe1AUAB1WsobsOwTbyIPjID2A3CBPEBYHLLAj1cODAgYnLgeECuqYN16J06jqIFXisvRrgjZv185P1EuY9ZaOFuMKWTRVnjWdpVNbKHp602Krw1NSl5X0EuY81LdmdvdKnkw5KdqN/fC7yXoG/wB7hu6IlXW9uPRb0Pdz6/iFgpsbg2PWDY+YlNdSKePcb7MO3Q+Y/SQndLp5ih6QK94uPMfjaDdKRwRdSCOsG4hJYBaBBzbop7f5GhEqnEjmnw+YhCbgcOCBISdr5aDwgN069aluO0vU+vkd4gWGGzim2j8xv5uj4Nu87QLAGAsAgIRATZgFoC2gLA5dAQVYAgixBFwQeBEchVZ5SVUGyLbVZSe07BX5KB4QH8BuECeICwCAloCFYDNSgDAh18CDwgVlbLyuqm3y8oEYXW91trqVHHrInqbTPNEViOR1WB3G8gLJBABobjQ9YNj5iBJp45xvIYfzCx8x+hkJ3SqeYqekCvhtDzH4gQbm8zqBlQqQRt71Nx0G6oJVmI6J8PmIQtssGgkJWmxAaqYcGBBxGXg8IENKdWl6tiB906r5QJmHzobqqlT95dV8t4+MC0pVVYbSsCOsG4gdwCAQCAQCBV8oPVp71fpaA5gNwgTxAWAQCAQCByRAbekDAi1sGDwgVuIy3iND2aQIjK67xceRk7hUqA7t/UdDCHUkEAgJsjfbXr4wOMR0T4fMSBb5XuEhK1WAtoCFYDT0QYESvggeECvbBMh2qbFT/KbefXAfo5u66VUuPvJofEboFphsWlToMD1jcw7wdYD8AgEAgVfKD1ae9X6WgOYDcIE8QFgEAgEAgEAgIRA4anAj1cKDArsTloPCBAeg69o7f1gcrWG46Ht/WSg5JBAbr9E+HzkC3yzcJCVqsDqAQCAhEBtqcCNWwgPCBW18u1uNCNxGhHjA6pY+tT0Yba9ujefHxgWWEzOm+gNm+6+h8OB8IEyAQKzP/Vp71fpaB3gNwgTxAWAQCAQCAQCAQCAloHLJAYqYcGBBxGXg8IFdUwTL0Tp1HUQGw53MLfESd0Oyt9IFxgKdgJCViICwCAQCAQEIgcMkBirhgYFficuB4QGadWtS6LbS/dfUeB3iBYYXN0bRwUbt1X/N+toHWbrtItvvg/AwOsGlhAmQFgEAgEAgEAgEAgEAgJaAhWA09EGBFqYIHhA4TAjqgTqVO0B0QFgEAgEAgEAgJaByVgNVKAMCLUwQ6oHVLDW04dXCBLppaA7AIBAIBAIBAIBAIBAIBAIBAS0BLQFtAWAQCAQCAQCAQCAQCAloCWgLAWB//9k=;" vertex="1" parent="1">
          <mxGeometry x="585" y="921" width="161.46" height="127" as="geometry" />
        </mxCell>
      </root>
    </mxGraphModel>
  </diagram>
</mxfile>
